<svg xmlns="http://www.w3.org/2000/svg" viewBox="0 0 1200 480" fill="none" role="img" aria-label="AI Bots Gone Wild and Supply Chain Woes: A Sysadmin's Take on This Week's Cyber News">
  <defs>
    <linearGradient id="bg" x1="0" y1="0" x2="1200" y2="480" gradientUnits="userSpaceOnUse">
      <stop offset="0" stop-color="#111827"/>
      <stop offset="1" stop-color="#1f2937"/>
    </linearGradient>
    <radialGradient id="glow" cx="0.78" cy="0.5" r="0.6">
      <stop offset="0" stop-color="#2dd4bf" stop-opacity="0.28"/>
      <stop offset="1" stop-color="#2dd4bf" stop-opacity="0"/>
    </radialGradient>
  </defs>

  <rect width="1200" height="480" fill="url(#bg)"/>
  <rect width="1200" height="480" fill="url(#glow)"/>

  <g stroke="#334155" stroke-width="1" opacity="0.30">
    <path d="M0 120 H1200 M0 240 H1200 M0 360 H1200"/>
    <path d="M200 0 V480 M400 0 V480 M600 0 V480 M800 0 V480 M1000 0 V480"/>
  </g>

  <g stroke="#2dd4bf" stroke-width="1.4" opacity="0.32" fill="none"><path d="M919 249 L963 363"/><path d="M919 249 L828 262"/><path d="M919 249 L819 139"/><path d="M919 249 L1079 220"/><path d="M919 249 L891 148"/><path d="M919 249 L1008 109"/><path d="M963 363 L891 148"/><path d="M919 249 L1038 275"/><path d="M919 249 L1031 370"/></g><circle cx="1038" cy="275" r="6" fill="#93c5fd" opacity="0.75"/><circle cx="1031" cy="370" r="5" fill="#93c5fd" opacity="0.75"/><circle cx="836" cy="336" r="4" fill="#93c5fd" opacity="0.9"/><circle cx="963" cy="363" r="24" fill="#0b1220" stroke="#f472b6" stroke-width="2"/><g transform="translate(949.3 350.0) scale(1.120)" fill="none" stroke="#f472b6" stroke-width="1.90" stroke-linecap="round" stroke-linejoin="round"><rect x="5" y="10.5" width="14" height="9" rx="2"/><path d="M8 10.5 V7.5 a4 4 0 0 1 8 0 V10.5"/><circle cx="12" cy="15" r="1.4" fill="#f472b6" stroke="none"/></g><circle cx="828" cy="262" r="28" fill="#0b1220" stroke="#a78bfa" stroke-width="2"/><g transform="translate(812.0 246.1) scale(1.307)" fill="none" stroke="#a78bfa" stroke-width="1.90" stroke-linecap="round" stroke-linejoin="round"><rect x="4.5" y="9.4" width="9" height="5.6" rx="2.8"/><rect x="10.5" y="9.4" width="9" height="5.6" rx="2.8"/></g><circle cx="819" cy="139" r="24" fill="#0b1220" stroke="#2dd4bf" stroke-width="2"/><g transform="translate(805.3 125.4) scale(1.120)" fill="none" stroke="#2dd4bf" stroke-width="1.90" stroke-linecap="round" stroke-linejoin="round"><rect x="7" y="7" width="10" height="10" rx="1.5"/><rect x="10" y="10" width="4" height="4" rx="0.6"/><path d="M9.5 7 V4 M12 7 V4 M14.5 7 V4 M9.5 17 V20 M12 17 V20 M14.5 17 V20 M7 9.5 H4 M7 12 H4 M7 14.5 H4 M17 9.5 H20 M17 12 H20 M17 14.5 H20"/></g><circle cx="1079" cy="220" r="24" fill="#0b1220" stroke="#fb7185" stroke-width="2"/><g transform="translate(1065.9 206.4) scale(1.120)" fill="none" stroke="#fb7185" stroke-width="1.90" stroke-linecap="round" stroke-linejoin="round"><circle cx="12" cy="12" r="6"/><circle cx="12" cy="12" r="1.4" fill="#fb7185" stroke="none"/><path d="M12 3 V6 M12 18 V21 M3 12 H6 M18 12 H21"/></g><circle cx="891" cy="148" r="24" fill="#0b1220" stroke="#fbbf24" stroke-width="2"/><g transform="translate(877.3 134.5) scale(1.120)" fill="none" stroke="#fbbf24" stroke-width="1.90" stroke-linecap="round" stroke-linejoin="round"><ellipse cx="12" cy="13.4" rx="4.2" ry="5.2"/><path d="M12 8.2 V5.6"/><circle cx="12" cy="4.7" r="1.5"/><path d="M9.6 5.4 L7.6 4 M14.4 5.4 L16.4 4"/><path d="M7.9 11 L4.9 9.6 M7.6 14 L4.6 14 M7.9 17 L5 18.4"/><path d="M16.1 11 L19.1 9.6 M16.4 14 L19.4 14 M16.1 17 L19 18.4"/><path d="M8 13.2 H16"/></g><circle cx="1008" cy="109" r="26" fill="#0b1220" stroke="#a78bfa" stroke-width="2"/><g transform="translate(993.8 94.6) scale(1.213)" fill="none" stroke="#a78bfa" stroke-width="1.90" stroke-linecap="round" stroke-linejoin="round"><rect x="4.5" y="9.4" width="9" height="5.6" rx="2.8"/><rect x="10.5" y="9.4" width="9" height="5.6" rx="2.8"/></g><circle cx="919" cy="249" r="46" fill="#0b1220" stroke="#2dd4bf" stroke-width="2.5"/><g transform="translate(894.6 225.7) scale(2.000)" fill="none" stroke="#dbeafe" stroke-width="1.70" stroke-linecap="round" stroke-linejoin="round"><rect x="7" y="7" width="10" height="10" rx="1.5"/><rect x="10" y="10" width="4" height="4" rx="0.6"/><path d="M9.5 7 V4 M12 7 V4 M14.5 7 V4 M9.5 17 V20 M12 17 V20 M14.5 17 V20 M7 9.5 H4 M7 12 H4 M7 14.5 H4 M17 9.5 H20 M17 12 H20 M17 14.5 H20"/></g>

  <g font-family="ui-sans-serif, system-ui, -apple-system, Segoe UI, Roboto, sans-serif">
    <text x="100" y="140" fill="#60a5fa" font-size="20" font-weight="600" letter-spacing="3">WEEKLY CYBER NEWS</text>
    <rect x="100" y="154" width="54" height="3" rx="1.5" fill="#2dd4bf"/>
    <text x="100" y="200" fill="#ffffff" font-size="34" font-weight="800"><tspan x="100" dy="0">AI Bots Gone Wild and Supply</tspan><tspan x="100" dy="42">Chain Woes: A Sysadmin's Take on</tspan><tspan x="100" dy="42">This Week's Cyber News</tspan></text>
    <text x="100" y="328" fill="#94a3b8" font-size="19" font-weight="400">Ai · Vulnerability · Supply Chain</text>
    <text x="100" y="432" fill="#64748b" font-size="16" font-weight="500">Juan Rodriguez · 20 July 2026</text>
  </g>
</svg>
